<svg width="40" height="40" viewBox="0 0 40 40" fill="none" xmlns="http://www.w3.org/2000/svg">
<circle opacity="0.1" cx="20" cy="20" r="20" fill="#FF3366"/>
<g clip-path="url(#clip0_5530_2583)">
<path d="M27.6002 13.25C27.6002 12.5219 27.0002 11.9343 26.1059 11.5341C25.2049 11.1309 23.9713 10.9 22.6248 10.9C21.2786 10.9 20.0451 11.1309 19.1443 11.5341C18.25 11.9343 17.65 12.5219 17.65 13.25C17.65 13.9781 18.25 14.5657 19.1443 14.9659C20.0451 15.3691 21.2786 15.6 22.6248 15.6C23.9713 15.6 25.2049 15.3691 26.1059 14.9659C27.0002 14.5657 27.6002 13.9781 27.6002 13.25ZM18.6002 13.25C18.6002 13.108 18.6887 12.9472 18.8861 12.7802C19.0817 12.6149 19.3705 12.4554 19.7363 12.3165C20.467 12.0389 21.4858 11.8502 22.6248 11.8502C23.7637 11.8502 24.7827 12.0389 25.5136 12.3165C25.8794 12.4554 26.1684 12.6149 26.364 12.7803C26.5615 12.9473 26.65 13.108 26.65 13.25C26.65 13.392 26.5615 13.5527 26.364 13.7197C26.1684 13.8851 25.8794 14.0446 25.5136 14.1835C24.7827 14.4611 23.7637 14.6498 22.6248 14.6498C21.4858 14.6498 20.467 14.4611 19.7363 14.1835C19.3705 14.0446 19.0817 13.8851 18.8861 13.7197C18.6887 13.5527 18.6002 13.392 18.6002 13.25Z" fill="#FF3366" stroke="#FF3366" stroke-width="0.2"/>
<path d="M27.6002 13.25V13.15H27.5002H26.75H26.65V13.25V15.5C26.65 15.642 26.5615 15.8027 26.364 15.9697C26.1684 16.1351 25.8794 16.2946 25.5136 16.4335C24.7827 16.7111 23.7637 16.8998 22.6248 16.8998C21.4858 16.8998 20.467 16.7111 19.7363 16.4335C19.3705 16.2946 19.0817 16.1351 18.8861 15.9697C18.6887 15.8027 18.6002 15.642 18.6002 15.5V13.25V13.15H18.5002H17.75H17.65V13.25V15.5C17.65 16.2281 18.25 16.8157 19.1443 17.2159C20.0451 17.6191 21.2786 17.85 22.6248 17.85C23.9713 17.85 25.2049 17.6191 26.1059 17.2159C27.0002 16.8157 27.6002 16.2281 27.6002 15.5V13.25Z" fill="#FF3366" stroke="#FF3366" stroke-width="0.2"/>
<path d="M17.65 17.757V17.8383L17.7296 17.8549L17.7296 17.8549L17.738 17.8567L17.7465 17.857C18.0034 17.866 18.2532 17.8848 18.4932 17.9119L18.6205 17.9263L18.6036 17.7993C18.6013 17.7824 18.6002 17.7665 18.6002 17.75V15.5V15.4H18.5002H17.75H17.65V15.5V17.75V17.757ZM21.5015 19.9454L21.5045 20.0446C21.8651 20.0808 22.2404 20.0999 22.6248 20.0999C23.9713 20.0999 25.2049 19.8691 26.1059 19.4659C27.0002 19.0656 27.6002 18.478 27.6002 17.7499V15.4999V15.3999H27.5002H26.75H26.65V15.4999V17.7499C26.65 17.8919 26.5615 18.0527 26.364 18.2197C26.1684 18.3851 25.8794 18.5445 25.5136 18.6835C24.7827 18.961 23.7637 19.1497 22.6248 19.1497C22.2361 19.1497 21.8616 19.1281 21.5068 19.0878L21.3795 19.0733L21.3964 19.2003C21.3987 19.2172 21.3998 19.2338 21.3998 19.2497C21.3998 19.3138 21.4054 19.5695 21.4146 19.9475L21.5015 19.9454Z" fill="#FF3366" stroke="#FF3366" stroke-width="0.2"/>
<path d="M21.4708 22.1525L21.3094 22.2763L21.5626 22.3004C21.9055 22.3331 22.2609 22.3501 22.6247 22.3501C23.9712 22.3501 25.2049 22.1192 26.1058 21.716C27.0001 21.3158 27.6002 20.7282 27.6002 20.0001V17.7501V17.6501H27.5002H26.7499H26.6499V17.7501V20.0001C26.6499 20.1421 26.5614 20.3028 26.3639 20.4698C26.1684 20.6352 25.8794 20.7947 25.5135 20.9336C24.7827 21.2112 23.7637 21.3999 22.6247 21.3999C22.257 21.3999 21.9005 21.3803 21.5631 21.3442L21.4495 21.332L21.4525 21.4462C21.4544 21.5218 21.4564 21.5983 21.4584 21.6757C21.4624 21.8316 21.4665 21.9909 21.4708 22.1525ZM18.4893 17.9113L18.6002 17.9236V17.8119V17.7501V17.6501H18.5002H17.75H17.65V17.7501V17.7571V17.8536L17.7465 17.857C18.0019 17.8661 18.2497 17.8849 18.4893 17.9113Z" fill="#FF3366" stroke="#FF3366" stroke-width="0.2"/>
<path d="M22.3502 20C22.3502 19.2719 21.7502 18.6843 20.856 18.2841C19.9551 17.8809 18.7217 17.65 17.3755 17.65C16.0289 17.65 14.7953 17.8809 13.8944 18.2841C13 18.6843 12.4 19.2719 12.4 20C12.4 20.7281 13 21.3157 13.8944 21.7159C14.7953 22.1191 16.0289 22.35 17.3755 22.35C18.7217 22.35 19.9551 22.1191 20.856 21.7159C21.7502 21.3157 22.3502 20.7281 22.3502 20ZM13.3502 20C13.3502 19.858 13.4388 19.6973 13.6362 19.5303C13.8318 19.3649 14.1208 19.2054 14.4867 19.0665C15.2175 18.7889 16.2365 18.6002 17.3755 18.6002C18.5145 18.6002 19.5333 18.7889 20.2639 19.0665C20.6297 19.2054 20.9186 19.3649 21.1141 19.5303C21.3115 19.6973 21.4 19.858 21.4 20C21.4 20.142 21.3115 20.3027 21.1141 20.4697C20.9186 20.6351 20.6297 20.7946 20.2639 20.9335C19.5333 21.2111 18.5145 21.3998 17.3755 21.3998C16.2365 21.3998 15.2175 21.2111 14.4867 20.9335C14.1208 20.7946 13.8318 20.6351 13.6362 20.4697C13.4388 20.3027 13.3502 20.142 13.3502 20Z" fill="#FF3366" stroke="#FF3366" stroke-width="0.2"/>
<path d="M22.3502 20V19.9H22.2502H21.5H21.4V20V22.25C21.4 22.392 21.3115 22.5528 21.1141 22.7198C20.9186 22.8851 20.6297 23.0446 20.2639 23.1835C19.5333 23.4611 18.5145 23.6498 17.3755 23.6498C16.2365 23.6498 15.2175 23.4611 14.4867 23.1835C14.1208 23.0446 13.8318 22.8851 13.6362 22.7197C13.4388 22.5527 13.3502 22.392 13.3502 22.25V20V19.9H13.2502H12.5H12.4V20V22.25C12.4 22.9781 13 23.5657 13.8944 23.9659C14.7953 24.3691 16.0289 24.6 17.3755 24.6C18.7217 24.6 19.9551 24.3691 20.856 23.9659C21.7502 23.5657 22.3502 22.9781 22.3502 22.25V20Z" fill="#FF3366" stroke="#FF3366" stroke-width="0.2"/>
<path d="M22.3502 22.25V22.15H22.2502H21.5H21.4V22.25V24.5C21.4 24.642 21.3115 24.8028 21.1141 24.9698C20.9186 25.1351 20.6297 25.2946 20.2639 25.4335C19.5333 25.7111 18.5145 25.8998 17.3755 25.8998C16.2365 25.8998 15.2175 25.7111 14.4867 25.4335C14.1208 25.2946 13.8318 25.1351 13.6362 24.9697C13.4388 24.8027 13.3502 24.642 13.3502 24.5V22.25V22.15H13.2502H12.5H12.4V22.25V24.5C12.4 25.2281 13 25.8157 13.8944 26.2159C14.7953 26.6191 16.0289 26.85 17.3755 26.85C18.7217 26.85 19.9551 26.6191 20.856 26.2159C21.7502 25.8157 22.3502 25.2281 22.3502 24.5V22.25Z" fill="#FF3366" stroke="#FF3366" stroke-width="0.2"/>
<path d="M22.3502 24.5V24.4H22.2502H21.5H21.4V24.5V26.75C21.4 26.892 21.3115 27.0528 21.1141 27.2198C20.9186 27.3851 20.6297 27.5446 20.2639 27.6835C19.5333 27.9611 18.5145 28.1498 17.3755 28.1498C16.2365 28.1498 15.2175 27.9611 14.4867 27.6835C14.1208 27.5446 13.8318 27.3851 13.6362 27.2197C13.4388 27.0527 13.3502 26.892 13.3502 26.75V24.5V24.4H13.2502H12.5H12.4V24.5V26.75C12.4 27.4781 13 28.0657 13.8944 28.4659C14.7953 28.8691 16.0289 29.1 17.3755 29.1C18.7217 29.1 19.9551 28.8691 20.856 28.4659C21.7502 28.0657 22.3502 27.4781 22.3502 26.75V24.5Z" fill="#FF3366" stroke="#FF3366" stroke-width="0.2"/>
<path d="M21.5395 24.4945L21.5626 24.5506L21.6231 24.556C21.9475 24.5851 22.2823 24.6 22.6248 24.6C23.9713 24.6 25.205 24.3692 26.1059 23.966C27.0002 23.5657 27.6003 22.9781 27.6003 22.25V20V19.9H27.5003H26.7501H26.6501V20V22.25C26.6501 22.392 26.5615 22.5528 26.364 22.7198C26.1685 22.8852 25.8795 23.0446 25.5136 23.1835C24.7828 23.4611 23.7638 23.6498 22.6248 23.6498C22.278 23.6498 21.9424 23.6324 21.6223 23.6004L21.5096 23.5891L21.5123 23.7023C21.5165 23.8717 21.5209 24.0392 21.5253 24.203C21.5276 24.2894 21.5298 24.3748 21.532 24.459L21.5325 24.4774L21.5395 24.4945L21.5395 24.4945Z" fill="#FF3366" stroke="#FF3366" stroke-width="0.2"/>
<path d="M21.5992 26.7459L21.621 26.8065L21.6851 26.8117C21.9894 26.8365 22.3043 26.85 22.6249 26.85C23.9714 26.85 25.2051 26.6191 26.106 26.2159C27.0003 25.8157 27.6004 25.2281 27.6004 24.5V22.25V22.15H27.5004H26.7501H26.6501V22.25V24.5C26.6501 24.642 26.5616 24.8027 26.3641 24.9697C26.1685 25.1351 25.8796 25.2946 25.5137 25.4335C24.7829 25.7111 23.7639 25.8998 22.6249 25.8998C22.2997 25.8998 21.9843 25.8844 21.6823 25.8559L21.5698 25.8453L21.5729 25.9582C21.578 26.1476 21.5824 26.3097 21.5858 26.4372C21.5893 26.5703 21.5918 26.6657 21.5933 26.7149L21.5937 26.7309L21.5992 26.7459L21.5992 26.7459Z" fill="#FF3366" stroke="#FF3366" stroke-width="0.2"/>
</g>
<defs>
<clipPath id="clip0_5530_2583">
<rect width="18" height="18" fill="white" transform="translate(11 11)"/>
</clipPath>
</defs>
</svg>
