<svg width="40" height="40" viewBox="0 0 40 40" fill="none" xmlns="http://www.w3.org/2000/svg">
<circle opacity="0.1" cx="20" cy="20" r="20" fill="#DF18FF"/>
<g clip-path="url(#clip0_5530_2369)">
<path d="M19.781 22.9717L19.8296 23.0592C19.8284 23.0598 19.8271 23.0605 19.8258 23.0611L19.781 22.9717ZM19.781 22.9717C19.8109 22.9567 19.8409 22.942 19.8708 22.9274L19.8684 22.9231L19.781 22.9717ZM28.2883 22.4376L28.2878 22.4374C27.6975 22.1973 27.2367 22.0011 26.9164 21.7334C26.6118 21.4789 26.4327 21.1579 26.4085 20.6562C26.6452 20.3531 26.7987 19.9771 26.8979 19.6431C26.9959 19.3135 27.0428 19.0182 27.0634 18.8612C27.456 18.2465 27.6136 17.6202 27.5474 17.1882C27.8776 16.3912 27.6459 15.7435 27.4262 15.2302C27.2439 14.7919 27.1122 14.4211 27.281 13.9465L27.3907 13.6543L27.4211 13.5733L27.3454 13.5316L27.0154 13.3494L27.0155 13.3492L27.0095 13.3464C25.8166 12.7871 24.4666 12.7085 23.4812 13.1248L23.4812 13.1247L23.4776 13.1264C22.8424 13.4252 22.3486 13.9122 22.1147 14.5876C21.7368 14.9025 21.561 15.3616 21.5006 15.8211C21.4404 16.2795 21.4933 16.7492 21.5841 17.105C21.4781 17.5783 21.6743 18.2115 22.0677 18.826C22.0883 18.9826 22.1353 19.2779 22.2332 19.6076C22.3322 19.9411 22.4854 20.3166 22.7214 20.6195C22.6804 21.1225 22.5006 21.4442 22.2004 21.6986C21.8848 21.9661 21.4331 22.1623 20.8433 22.4021L20.8274 22.4085C20.4664 22.5531 20.102 22.699 19.7362 22.8823L19.6429 22.9291L19.6936 23.0203L20.0606 23.6803L20.1091 23.7676L20.1965 23.7192C20.4107 23.6004 20.6201 23.5151 20.8356 23.4273C20.947 23.3819 21.0601 23.3358 21.1764 23.2841C21.7414 23.0654 22.3624 22.8217 22.84 22.4056C23.3246 21.9835 23.658 21.3878 23.658 20.4787V20.3317V20.2903L23.6287 20.261L23.5187 20.151C23.3349 19.9672 23.2033 19.6748 23.1178 19.3824C23.0328 19.0915 22.998 18.8168 22.998 18.6817V18.5717V18.5479L22.9872 18.5266L22.9502 18.4535L22.9509 18.4532L22.9442 18.4432C22.7291 18.1205 22.6146 17.8548 22.5582 17.6597C22.53 17.562 22.5165 17.4829 22.512 17.4237C22.5079 17.3698 22.5116 17.3382 22.5146 17.3252L22.5836 17.1862L22.6001 17.1532L22.591 17.1173L22.5541 16.9704L22.5544 16.9703L22.552 16.9632C22.4651 16.702 22.4207 16.3406 22.4559 16.0062C22.4915 15.6682 22.605 15.3846 22.8063 15.2445L22.9155 15.172L22.9477 15.1506L22.9571 15.1131L22.9937 14.9677C23.1332 14.4818 23.4071 14.1405 23.8896 13.9336L23.8896 13.9337L23.8929 13.9321C24.5388 13.6263 25.4283 13.6471 26.2689 13.9777C26.1824 14.5911 26.367 15.0678 26.5438 15.4909C26.556 15.5251 26.5681 15.5587 26.58 15.5916C26.7491 16.0594 26.8735 16.4039 26.622 16.8746L26.6214 16.8743L26.6173 16.8847L26.5442 17.0677L26.5277 17.1093L26.5476 17.1493L26.6186 17.2922C26.619 17.2941 26.6197 17.2984 26.6203 17.3058C26.6215 17.3208 26.6217 17.3427 26.6197 17.3718C26.6156 17.4299 26.6031 17.5108 26.5769 17.6114C26.5246 17.8118 26.4189 18.0863 26.2231 18.4075L26.1506 18.5137L26.1332 18.5392V18.57V18.6737C26.1146 18.8213 26.0784 19.0957 25.9991 19.3821C25.9179 19.6755 25.7953 19.9666 25.6125 20.1493L25.5025 20.2593L25.4732 20.2886V20.33V20.477C25.4732 21.3861 25.8066 21.9818 26.2912 22.4039C26.7694 22.8206 27.3915 23.0644 27.9571 23.2833C28.5286 23.5045 29.0443 23.71 29.4374 24.0368C29.8039 24.3416 30.0672 24.7552 30.1539 25.4H23.6671H23.5671V25.5V26.2331V26.3331H23.6671H31.0002H31.1002V26.2331V25.8661C31.1002 24.7212 30.7043 23.9794 30.1467 23.4649C29.5951 22.9558 28.8907 22.675 28.2883 22.4376Z" fill="#DF18FF" stroke="#DF18FF" stroke-width="0.2"/>
<path d="M16.2239 13.5208C15.1464 13.5208 14.5382 14.032 14.2297 14.3376C13.2622 14.5872 12.7582 15.1283 12.4968 15.7794C12.2405 16.4181 12.2198 17.1586 12.2017 17.808L12.2009 17.8342C12.2009 17.8343 12.2009 17.8345 12.2009 17.8346C12.1824 18.3506 12.1641 18.8344 12.0617 19.2485C11.9604 19.6584 11.7792 19.9889 11.4423 20.209L11.1154 20.3904L11.0205 20.443L11.0807 20.5333L11.3007 20.8633C11.8169 21.638 12.9646 22.3622 14.1528 22.7086C13.7443 23.862 12.7559 24.2426 11.6805 24.6366C11.0419 24.855 10.3455 25.0982 9.81117 25.5472C9.26958 26.0023 8.9 26.6633 8.9 27.7V28.0669V28.1669H9H22.933H23.033V28.0669V27.7C23.033 26.6633 22.6635 26.0025 22.127 25.5474C21.5974 25.0982 20.9104 24.8547 20.2908 24.6359C20.2748 24.63 20.2589 24.6242 20.243 24.6183C19.1834 24.2304 18.2198 23.8775 17.8172 22.708C19.0058 22.3617 20.153 21.6373 20.6701 20.8624L20.6702 20.8624L20.8902 20.5324L20.9504 20.4421L20.8555 20.3895L20.528 20.2078C20.2099 20.0059 20.0004 19.6481 19.8478 19.1812C19.695 18.7136 19.6045 18.1537 19.5127 17.5654L19.5126 17.5644C19.5081 17.5379 19.5037 17.5112 19.4993 17.4845C19.3571 16.6287 19.1955 15.656 18.7585 14.8912C18.5317 14.4943 18.2292 14.1502 17.8149 13.906C17.4005 13.6616 16.8803 13.5208 16.2239 13.5208ZM22.0804 27.233H9.88561C9.97297 26.723 10.2132 26.4009 10.5523 26.1586C10.8986 25.9112 11.3468 25.7471 11.8564 25.5606C11.8931 25.5472 11.9302 25.5336 11.9675 25.5199L11.9679 25.5198C11.9824 25.5144 11.997 25.509 12.0116 25.5035C12.638 25.2708 13.3128 25.0201 13.8862 24.5843C14.4774 24.135 14.9584 23.4914 15.1837 22.4777L15.1837 22.4778L15.1842 22.4756L15.2572 22.1086L15.2767 22.0105L15.1786 21.991L14.8117 21.918L14.8117 21.918L14.8103 21.9177C13.8799 21.7457 12.8829 21.2081 12.3313 20.6619C12.6876 20.3065 12.8777 19.8643 12.9834 19.3976C13.0946 18.9066 13.1137 18.3809 13.1315 17.8925L13.1321 17.8758H13.1321L13.1321 17.8746C13.1507 17.1193 13.1882 16.5253 13.3807 16.0833C13.4756 15.8654 13.6077 15.6861 13.7942 15.5435C13.9813 15.4005 14.2279 15.2909 14.5563 15.2199L14.5565 15.2205L14.5671 15.2169L14.6771 15.18L14.6993 15.1725L14.7159 15.1559L14.789 15.0828L14.7895 15.0823C15.0411 14.8307 15.4197 14.4521 16.2213 14.4521C16.6591 14.4521 16.9999 14.5281 17.2715 14.6685C17.5423 14.8084 17.7508 15.0157 17.9192 15.2893C18.2602 15.8429 18.4319 16.6566 18.6157 17.7056C18.707 18.2725 18.7996 18.8474 18.9578 19.3681C19.106 19.8563 19.3138 20.3042 19.6385 20.6585C19.0876 21.2059 18.0885 21.7445 17.1561 21.9177L17.1548 21.918L16.7878 21.991L16.6898 22.0105L16.7093 22.1086L16.7823 22.4756L16.7824 22.476C16.989 23.491 17.4706 24.1351 18.0667 24.5845C18.6366 25.0141 19.3094 25.2639 19.9286 25.4938C19.952 25.5025 19.9754 25.5111 19.9986 25.5198L19.9991 25.5199L20.0071 25.5229C20.5578 25.7247 21.0443 25.9029 21.4139 26.1714C21.7533 26.4178 21.993 26.74 22.0804 27.233Z" fill="#DF18FF" stroke="#DF18FF" stroke-width="0.2"/>
</g>
<defs>
<clipPath id="clip0_5530_2369">
<rect width="22" height="22" fill="white" transform="translate(9 9)"/>
</clipPath>
</defs>
</svg>
